<?xml version="1.0" standalone="no"?><!DOCTYPE svg PUBLIC "-//W3C//DTD SVG 1.1//EN" "http://www.w3.org/Graphics/SVG/1.1/DTD/svg11.dtd"><svg t="1556587596765" class="icon" style="" viewBox="0 0 1024 1024" version="1.1" xmlns="http://www.w3.org/2000/svg" p-id="1910" xmlns:xlink="http://www.w3.org/1999/xlink" width="200" height="200"><defs><style type="text/css"></style></defs><path d="M512.092 665.17l51.21 0 0-51.185-51.21 0 0 51.185zM563.308 255.759l-307.205 0 0 204.698 307.205 0 0-204.698zM460.887 562.816l102.415 0 0-51.169-102.415 0 0 51.169zM460.887 613.985l-204.785 0 0 51.185 204.79 0 0-51.185zM819.297 204.585l0-51.174-102.4 0 0-51.18-614.4 0 0 665.287c0 84.797 68.767 153.529 153.6 153.529l511.974 0c84.838 0 153.626-68.736 153.626-153.527l0-562.934-102.4 0zM665.692 869.898l-409.59 0c-28.283 0-102.415-50.109-102.415-102.38l0-614.134 512.005 0 0 716.513zM870.497 793.139c0 42.383-34.391 76.759-76.8 76.759s-76.8-34.375-76.8-76.759l0-588.554 51.18 0 0 588.554c0 14.131 11.474 25.585 25.62 25.585 14.137 0 25.6-11.453 25.6-25.585l0-537.38 51.2 0 0 537.38zM409.692 511.647l-153.59 0 0 51.169 153.59 0 0-51.169zM563.292 716.343l-307.19 0 0 51.174 307.19 0 0-51.174z" p-id="1911"></path></svg>