<?xml version="1.0" standalone="no"?><!DOCTYPE svg PUBLIC "-//W3C//DTD SVG 1.1//EN" "http://www.w3.org/Graphics/SVG/1.1/DTD/svg11.dtd"><svg t="1556641081228" class="icon" style="" viewBox="0 0 1024 1024" version="1.1" xmlns="http://www.w3.org/2000/svg" p-id="824" xmlns:xlink="http://www.w3.org/1999/xlink" width="200" height="200"><defs><style type="text/css"></style></defs><path d="M929.84 550.848a29.155 29.155 0 0 0 29.153-29.154V347.16a29.282 29.282 0 0 0-17.9-27.291c-0.028-0.012-0.055-0.019-0.082-0.029L358.4 67.362a0.324 0.324 0 0 0-0.038-0.014 29.452 29.452 0 0 0-25.538 1.186L80.374 204.472A29.229 29.229 0 0 0 65 230.2v291.5a29.155 29.155 0 0 0 29.157 29.15h111.9a87.872 87.872 0 0 0 53.29 53.293V900.69h-87.453a29.155 29.155 0 0 0 0 58.309h408.125a29.155 29.155 0 0 0 0-58.309h-87.456V609.154h29.153a87.594 87.594 0 0 0 82.441-58.306h238.228v145.767a29.154 29.154 0 0 0 29.152 29.154 29.155 29.155 0 1 1-20.612 49.77 29.152 29.152 0 0 0-41.225 41.228 87.471 87.471 0 1 0 90.99-144.342V550.85h29.15zM375.957 317.62h29.152c70.392 0 129.283 50.159 142.826 116.613H405.109a29.187 29.187 0 0 1-29.152-29.154V317.62z m-174.91 174.922h-77.739V375.929h77.739v116.613z m5.013-174.922h-82.752v-70.047l194.346-104.654v116.4H288.5a87.6 87.6 0 0 0-82.44 58.301z m111.594 583.069v-75.384l75.379 75.384h-75.379zM434.26 859.46L329.728 754.922 434.26 650.383V859.46zM317.654 684.539v-75.385h75.379z m233.214-162.845a29.187 29.187 0 0 1-29.152 29.154H288.5a29.187 29.187 0 0 1-29.152-29.154v-174.92A29.187 29.187 0 0 1 288.5 317.62h29.153v87.461a87.557 87.557 0 0 0 87.455 87.461h145.76v29.152z m-3.1-204.074a203.383 203.383 0 0 0-142.659-58.306h-29.154v-120.8l413.3 179.1H547.766z m61.406 174.922v-29.155a203.612 203.612 0 0 0-7.079-53.31l82.458 82.463h-75.381zM650.4 375.927h209.063L754.931 480.465z m174.91 116.615l75.38-75.383v75.383h-75.38z" fill="" p-id="825"></path></svg>