<?xml version="1.0" standalone="no"?><!DOCTYPE svg PUBLIC "-//W3C//DTD SVG 1.1//EN" "http://www.w3.org/Graphics/SVG/1.1/DTD/svg11.dtd"><svg t="1555997634653" class="icon" style="" viewBox="0 0 1024 1024" version="1.1" xmlns="http://www.w3.org/2000/svg" p-id="1466" xmlns:xlink="http://www.w3.org/1999/xlink" width="200" height="200"><defs><style type="text/css"></style></defs><path d="M426 371h156v63H426zM437 694.644v212.938c0 1.252-0.397 2.419-1.057 3.418H582V690H434.917c1.266 1.196 2.083 2.835 2.083 4.644zM528 794c0-8.284 6.716-15 15-15s15 6.716 15 15v27c0 8.284-6.716 15-15 15s-15-6.716-15-15v-27zM426 212h156v63H426zM426 531h156v63H426z" fill="#FCDE9E" p-id="1467"></path><path d="M397 170.755v32.071C400.274 190.839 411.252 182 424.263 182h159.475C599.321 182 612 194.679 612 210.263v66.475C612 292.321 599.321 305 583.737 305H424.263c-13.01 0-23.989-8.839-27.263-20.826v77.652C400.274 349.839 411.252 341 424.263 341h159.475C599.321 341 612 353.679 612 369.263v66.475C612 451.321 599.321 464 583.737 464H424.263c-13.01 0-23.989-8.839-27.263-20.826v78.652C400.274 509.839 411.252 501 424.263 501h159.475C599.321 501 612 513.679 612 529.263v66.475C612 611.321 599.321 624 583.737 624H424.263c-13.01 0-23.989-8.839-27.263-20.826v77.652C400.274 668.839 411.252 660 424.263 660h159.475C599.321 660 612 672.679 612 688.263V911h35V298.224c0-2.328 0.352-4.58 1-6.709V158H409.755c-7.044 0-12.755 5.711-12.755 12.755zM846 911V489.586L702 401.35v-66.651l-24-19.161V911h168z m-22-104.263C824 822.321 811.321 835 795.737 835h-66.475C713.679 835 701 822.321 701 806.737v-39.475C701 751.679 713.679 739 729.263 739h66.475C811.321 739 824 751.679 824 767.263v39.474z m0-133C824 689.321 811.321 702 795.737 702h-66.475C713.679 702 701 689.321 701 673.737v-39.475C701 618.679 713.679 606 729.263 606h66.475C811.321 606 824 618.679 824 634.263v39.474zM729.263 474h66.475C811.321 474 824 486.679 824 502.263v39.475C824 557.321 811.321 570 795.737 570h-66.475C713.679 570 701 557.321 701 541.737v-39.475C701 486.679 713.679 474 729.263 474zM702 296.183V170.755c0-7.044-5.711-12.755-12.755-12.755H678v119.013l24 19.17zM901 911V526.224c0-3.705-1.263-6.709-6.156-6.709L876 507.968V911h25z" fill="#FCDE9E" p-id="1468"></path><path d="M731 636h63v36h-63zM731 504h63v36h-63zM731 769h63v36h-63z" fill="#FCDE9E" p-id="1469"></path><path d="M928 911h-52V446.111c0-9.815-6.477-20.627-16.403-24.046L702 296.183l-24-19.17v-145.75C678 115.679 665.321 103 649.737 103H357.263C341.679 103 329 115.679 329 131.263v304.393L148.203 544.017C137.678 546.016 130 554.496 130 564.768V911H92c-8.284 0-15 6.716-15 15s6.716 15 15 15h257.827c2.371 0.648 4.863 1 7.437 1h292.475c2.574 0 5.065-0.352 7.437-1H928c8.284 0 15-6.716 15-15s-6.716-15-15-15z m-346 0H426V690h156v221z m120-576.301l144 114.968V911H678V315.538l24 19.161zM359 133h289v158.515c-0.648 2.128-1 4.38-1 6.709V911h-35V688.263C612 672.679 599.321 660 583.737 660H424.263c-13.01 0-23.989 8.839-27.263 20.826-0.648 2.371-1 4.863-1 7.437V911h-37V133zM160 572.063l169-101.158V911H160V572.063z" fill="#58A80A" p-id="1470"></path><path d="M278.737 606h-66.475C196.679 606 184 618.679 184 634.263v39.475C184 689.321 196.679 702 212.263 702h66.475C294.321 702 307 689.321 307 673.737v-39.475C307 618.679 294.321 606 278.737 606zM277 672h-63v-36h63v36zM795.737 606h-66.475C713.679 606 701 618.679 701 634.263v39.475C701 689.321 713.679 702 729.263 702h66.475C811.321 702 824 689.321 824 673.737v-39.475C824 618.679 811.321 606 795.737 606zM794 672h-63v-36h63v36zM701 541.737C701 557.321 713.679 570 729.263 570h66.475C811.321 570 824 557.321 824 541.737v-39.475C824 486.679 811.321 474 795.737 474h-66.475C713.679 474 701 486.679 701 502.263v39.474zM731 504h63v36h-63v-36zM795.737 739h-66.475C713.679 739 701 751.679 701 767.263v39.475C701 822.321 713.679 835 729.263 835h66.475C811.321 835 824 822.321 824 806.737v-39.475C824 751.679 811.321 739 795.737 739zM794 805h-63v-36h63v36zM278.737 739h-66.475C196.679 739 184 751.679 184 767.263v39.475C184 822.321 196.679 835 212.263 835h66.475C294.321 835 307 822.321 307 806.737v-39.475C307 751.679 294.321 739 278.737 739zM277 805h-63v-36h63v36zM424.263 305h159.475C599.321 305 612 292.321 612 276.737v-66.475C612 194.679 599.321 182 583.737 182H424.263c-13.01 0-23.989 8.839-27.263 20.826-0.648 2.371-1 4.863-1 7.437v66.475c0 2.574 0.352 5.065 1 7.437C400.274 296.161 411.252 305 424.263 305zM426 212h156v63H426v-63zM424.263 464h159.475C599.321 464 612 451.321 612 435.737v-66.475C612 353.679 599.321 341 583.737 341H424.263c-13.01 0-23.989 8.839-27.263 20.826-0.648 2.371-1 4.863-1 7.437v66.475c0 2.574 0.352 5.065 1 7.437C400.274 455.161 411.252 464 424.263 464zM426 371h156v63H426v-63zM424.263 624h159.475C599.321 624 612 611.321 612 595.737v-66.475C612 513.679 599.321 501 583.737 501H424.263c-13.01 0-23.989 8.839-27.263 20.826-0.648 2.371-1 4.863-1 7.437v66.475c0 2.574 0.352 5.065 1 7.437C400.274 615.161 411.252 624 424.263 624zM426 531h156v63H426v-63zM543 836c8.284 0 15-6.716 15-15v-27c0-8.284-6.716-15-15-15s-15 6.716-15 15v27c0 8.284 6.716 15 15 15z" fill="#58A80A" p-id="1471"></path></svg>