<?xml version="1.0" standalone="no"?><!DOCTYPE svg PUBLIC "-//W3C//DTD SVG 1.1//EN" "http://www.w3.org/Graphics/SVG/1.1/DTD/svg11.dtd"><svg t="1556123537901" class="icon" style="" viewBox="0 0 1024 1024" version="1.1" xmlns="http://www.w3.org/2000/svg" p-id="1765" xmlns:xlink="http://www.w3.org/1999/xlink" width="200" height="200"><defs><style type="text/css"></style></defs><path d="M832 128 128 128C57.344 128 0 185.344 0 256l0 576c0 70.656 57.344 128 128 128l704 0c70.656 0 128-57.344 128-128L960 256C960 185.344 902.656 128 832 128zM688.448 571.84l-319.936 191.488c-5.12 3.008-10.816 4.544-16.512 4.544-5.44 0-10.88-1.344-15.744-4.16C326.208 758.08 320 747.456 320 735.936L320 352.96c0-11.52 6.208-22.08 16.256-27.776 9.984-5.696 22.4-5.504 32.256 0.384l319.936 191.488C698.112 522.816 704 533.248 704 544.448 704 555.712 698.112 566.08 688.448 571.84z" p-id="1766"></path></svg>